<?xml version="1.0" standalone="no"?>
<!DOCTYPE svg PUBLIC "-//W3C//DTD SVG 20010904//EN"
        "http://www.w3.org/TR/2001/REC-SVG-20010904/DTD/svg10.dtd">
<svg version="1.0" xmlns="http://www.w3.org/2000/svg"
     width="1280.000000pt" height="1280.000000pt" viewBox="0 0 1280.000000 1280.000000"
     preserveAspectRatio="xMidYMid meet">
    <g transform="translate(0.000000,1280.000000) scale(0.100000,-0.100000)"
       fill="#000000" stroke="none">
        <path d="M6438 12239 c-1824 -80 -3259 -798 -4263 -2134 -229 -305 -403 -590
-590 -970 -384 -776 -593 -1506 -682 -2385 -14 -140 -18 -265 -18 -620 1 -479
11 -631 69 -1000 120 -763 398 -1508 769 -2065 219 -328 507 -655 822 -932
716 -630 1625 -1040 2780 -1252 901 -166 2012 -181 2945 -40 803 122 1565 408
2258 849 525 335 1076 851 1409 1320 109 153 273 435 273 469 0 6 -66 45 -147
88 l-148 78 -540 3 c-297 1 -549 1 -560 -2 -11 -3 -43 -36 -70 -73 -411 -561
-1186 -1088 -1983 -1347 -849 -277 -2031 -342 -3057 -170 -645 108 -1280 322
-1750 589 -286 162 -525 344 -755 575 -223 222 -375 418 -542 699 -499 837
-686 2001 -508 3161 132 863 518 1743 1044 2380 373 452 816 800 1373 1078
556 278 1139 435 1791 483 213 15 727 7 917 -16 760 -89 1444 -343 2024 -750
749 -526 1226 -1306 1373 -2245 20 -129 22 -181 22 -480 0 -299 -2 -351 -22
-480 -60 -383 -165 -714 -338 -1066 -290 -591 -710 -1043 -1264 -1362 -268
-154 -502 -207 -642 -144 -75 33 -107 91 -108 194 0 106 19 201 644 3092 218
1007 396 1838 396 1848 0 17 -25 18 -571 16 l-571 -3 -44 -76 c-41 -71 -46
-89 -104 -370 -67 -326 -68 -329 -80 -329 -5 0 -45 47 -89 105 -222 287 -468
491 -771 639 -595 292 -1230 275 -1895 -49 -648 -316 -1142 -807 -1539 -1532
-288 -525 -464 -1062 -532 -1623 -25 -198 -25 -640 0 -825 54 -414 146 -719
322 -1066 220 -434 509 -751 872 -957 274 -155 534 -237 834 -263 574 -49
1204 220 1749 749 75 72 143 132 151 132 9 0 20 -25 32 -77 30 -133 84 -285
123 -353 21 -35 69 -98 108 -138 148 -158 313 -243 569 -295 98 -19 141 -22
376 -22 268 0 315 4 530 47 603 118 1185 462 1729 1024 536 552 918 1166 1133
1819 244 743 286 1600 117 2400 -249 1181 -1013 2272 -2029 2897 -929 572
-2054 834 -3342 777z m205 -3562 c113 -30 256 -95 360 -164 99 -66 270 -239
340 -344 201 -304 290 -717 259 -1203 -32 -482 -148 -912 -364 -1348 -290
-585 -763 -1033 -1268 -1202 -412 -138 -771 -57 -1083 243 -229 220 -364 489
-427 851 -28 160 -38 510 -20 686 42 416 162 858 341 1255 230 513 617 954
993 1133 203 98 344 126 591 122 155 -3 193 -7 278 -29z"/>
    </g>
</svg>
